<?xml version="1.0" encoding="UTF-8"?>
<svg xmlns="http://www.w3.org/2000/svg" viewBox="0 0 400 400">
  <path class="circuit-path" d="M200 20v60m-80 0h160m-160 0v60m0 0h160m-160 0v60m0 0h160m-80 0v60m-120-120h40m160 0h40m-240 60h40m160 0h40" stroke-width="8" fill="none"/>
  <circle cx="200" cy="80" r="10"/>
  <circle cx="200" cy="140" r="10"/>
  <circle cx="200" cy="200" r="10"/>
  <circle cx="120" cy="140" r="10"/>
  <circle cx="280" cy="140" r="10"/>
  <circle cx="120" cy="200" r="10"/>
  <circle cx="280" cy="200" r="10"/>
  <path class="pulse" d="M200 260c-20 0-40-10-40-30s20-30 40-30 40 10 40 30-20 30-40 30z"/>
</svg>
